<svg width="26" height="26" viewBox="0 0 26 26" fill="none" xmlns="http://www.w3.org/2000/svg">
<path d="M13 26C20.1797 26 26 20.1797 26 13C26 5.8203 20.1797 0 13 0C5.8203 0 0 5.8203 0 13C0 20.1797 5.8203 26 13 26Z" fill="#F68536"/>
<path fill-rule="evenodd" clip-rule="evenodd" d="M7.03976 8.84771C7.67618 8.31736 8.62202 8.40335 9.15237 9.03976L13 13.657L16.8477 9.03976C17.3781 8.40335 18.3239 8.31736 18.9603 8.84771C19.5967 9.37805 19.6827 10.3239 19.1524 10.9603L14.1524 16.9603C13.8674 17.3023 13.4452 17.5 13 17.5C12.5549 17.5 12.1327 17.3023 11.8477 16.9603L6.84771 10.9603C6.31736 10.3239 6.40335 9.37805 7.03976 8.84771Z" fill="white"/>
</svg>
