<svg width="48" height="48" viewBox="0 0 48 48" fill="none" xmlns="http://www.w3.org/2000/svg">
<g opacity="0.3" clip-path="url(#clip0_1477_1504)">
<path fill-rule="evenodd" clip-rule="evenodd" d="M28.3287 22.7047C28.3993 22.7752 28.4554 22.8588 28.4936 22.951C28.5318 23.0431 28.5515 23.1419 28.5515 23.2416C28.5515 23.3414 28.5318 23.4401 28.4936 23.5323C28.4554 23.6244 28.3993 23.7081 28.3287 23.7785L23.7787 28.3285C23.7083 28.3991 23.6246 28.4552 23.5325 28.4934C23.4403 28.5316 23.3416 28.5513 23.2418 28.5513C23.1421 28.5513 23.0433 28.5316 22.9512 28.4934C22.859 28.4552 22.7754 28.3991 22.7049 28.3285L20.4299 26.0535C20.3594 25.983 20.3035 25.8993 20.2653 25.8072C20.2272 25.7151 20.2075 25.6163 20.2075 25.5166C20.2075 25.4169 20.2272 25.3182 20.2653 25.2261C20.3035 25.1339 20.3594 25.0502 20.4299 24.9797C20.5723 24.8373 20.7654 24.7573 20.9668 24.7573C21.0665 24.7573 21.1653 24.777 21.2574 24.8151C21.3495 24.8533 21.4332 24.9092 21.5037 24.9797L23.2418 26.7193L27.2549 22.7047C27.3254 22.6341 27.409 22.5781 27.5012 22.5398C27.5933 22.5016 27.6921 22.4819 27.7918 22.4819C27.8916 22.4819 27.9903 22.5016 28.0825 22.5398C28.1746 22.5781 28.2583 22.6341 28.3287 22.7047Z" fill="white"/>
<path d="M17.9333 14.1416H16.4166C15.6121 14.1416 14.8406 14.4612 14.2717 15.03C13.7029 15.5989 13.3833 16.3704 13.3833 17.1749V33.0999C13.3833 33.9044 13.7029 34.676 14.2717 35.2448C14.8406 35.8137 15.6121 36.1333 16.4166 36.1333H31.5833C32.3878 36.1333 33.1593 35.8137 33.7282 35.2448C34.2971 34.676 34.6166 33.9044 34.6166 33.0999V17.1749C34.6166 16.3704 34.2971 15.5989 33.7282 15.03C33.1593 14.4612 32.3878 14.1416 31.5833 14.1416H30.0666V15.6583H31.5833C31.9855 15.6583 32.3713 15.8181 32.6557 16.1025C32.9402 16.3869 33.1 16.7727 33.1 17.1749V33.0999C33.1 33.5022 32.9402 33.8879 32.6557 34.1724C32.3713 34.4568 31.9855 34.6166 31.5833 34.6166H16.4166C16.0144 34.6166 15.6286 34.4568 15.3442 34.1724C15.0598 33.8879 14.9 33.5022 14.9 33.0999V17.1749C14.9 16.7727 15.0598 16.3869 15.3442 16.1025C15.6286 15.8181 16.0144 15.6583 16.4166 15.6583H17.9333V14.1416Z" fill="white"/>
<path d="M26.2752 13.3834C26.4763 13.3834 26.6692 13.4633 26.8114 13.6055C26.9536 13.7477 27.0335 13.9406 27.0335 14.1417V15.6584C27.0335 15.8595 26.9536 16.0524 26.8114 16.1946C26.6692 16.3368 26.4763 16.4167 26.2752 16.4167H21.7252C21.5241 16.4167 21.3312 16.3368 21.189 16.1946C21.0468 16.0524 20.9669 15.8595 20.9669 15.6584V14.1417C20.9669 13.9406 21.0468 13.7477 21.189 13.6055C21.3312 13.4633 21.5241 13.3834 21.7252 13.3834H26.2752ZM21.7252 11.8667C21.1218 11.8667 20.5432 12.1064 20.1165 12.533C19.6899 12.9597 19.4502 13.5383 19.4502 14.1417V15.6584C19.4502 16.2617 19.6899 16.8404 20.1165 17.267C20.5432 17.6937 21.1218 17.9334 21.7252 17.9334H26.2752C26.8786 17.9334 27.4572 17.6937 27.8839 17.267C28.3105 16.8404 28.5502 16.2617 28.5502 15.6584V14.1417C28.5502 13.5383 28.3105 12.9597 27.8839 12.533C27.4572 12.1064 26.8786 11.8667 26.2752 11.8667H21.7252Z" fill="white"/>
</g>
<defs>
<clipPath id="clip0_1477_1504">
<rect width="24.2667" height="24.2667" fill="white" transform="translate(11.8667 11.8667)"/>
</clipPath>
</defs>
</svg>
